<svg width="16" height="16" viewBox="0 0 16 16" fill="none" xmlns="http://www.w3.org/2000/svg">
<g id="database">
<path id="database_2" fill-rule="evenodd" clip-rule="evenodd" d="M2.81498 5.18707C4.03749 5.78232 5.90663 6.10489 8.00016 6.10489C10.0937 6.10489 11.9628 5.78232 13.1853 5.18707V8.00002C13.1853 8.46579 10.8809 9.23598 8.00016 9.23598C5.11939 9.23598 2.81498 8.46579 2.81498 8.00002V5.18707ZM1.3335 3.38579C1.3335 1.66337 4.32018 0.666687 8.00016 0.666687C11.6801 0.666687 14.6668 1.66337 14.6668 3.38579V8.00002V12.6143C14.6668 14.34 11.6946 15.3334 8.00016 15.3334C4.30568 15.3334 1.3335 14.34 1.3335 12.6143V8.00002V3.38579ZM2.81498 12.6143V9.80493C4.03507 10.3984 5.90102 10.7191 8.00016 10.7191C10.0993 10.7191 11.9653 10.3984 13.1853 9.80493V12.6143C13.1853 13.08 10.8809 13.8502 8.00016 13.8502C5.11939 13.8502 2.81498 13.08 2.81498 12.6143ZM8.00016 4.62174C10.8658 4.62174 13.1853 3.84768 13.1853 3.38579C13.1853 2.92389 10.8658 2.14983 8.00016 2.14983C5.13455 2.14983 2.81498 2.92389 2.81498 3.38579C2.81498 3.84768 5.13455 4.62174 8.00016 4.62174Z" fill="#2C4067" fill-opacity="0.75"/>
</g>
</svg>
