<svg width="16" height="16" viewBox="0 0 16 16" fill="none" xmlns="http://www.w3.org/2000/svg">
<g id="key">
<g id="key 2">
<path id="key_2" fill-rule="evenodd" clip-rule="evenodd" d="M13.5013 1.90182C11.7749 0.234342 9.03056 0.258189 7.33333 1.95542C5.80987 3.47888 5.63468 5.84599 6.82074 7.56335L3.88129 10.5028L2.21522 12.1689C2.21502 12.1691 2.21482 12.1693 2.21463 12.1695C2.21443 12.1697 2.21423 12.1699 2.21404 12.1701L0.881292 13.5028L0.824308 13.5668C0.596369 13.8546 0.615364 14.274 0.881292 14.5399C1.16768 14.8263 1.632 14.8263 1.91838 14.5399L2.73317 13.7251L4.21463 15.2066L4.27859 15.2635C4.56643 15.4915 4.98579 15.4725 5.25172 15.2066C5.5381 14.9202 5.5381 14.4558 5.25172 14.1695L3.77026 12.688L4.39984 12.0584L5.88129 13.5399L5.94525 13.5969C6.2331 13.8248 6.65245 13.8058 6.91838 13.5399C7.20477 13.2535 7.20477 12.7892 6.91838 12.5028L5.43693 11.0213L7.84705 8.61122C8.85884 9.33922 10.1424 9.60924 11.3759 9.33349L11.5459 9.29194C13.072 8.88668 14.2639 7.69474 14.6692 6.16864C15.0745 4.64255 14.6309 3.0163 13.5013 1.90182ZM8.32855 7.09957L8.33984 7.11067L8.23063 6.99105C7.22522 5.83622 7.27544 4.08749 8.37042 2.99251C9.50191 1.86102 11.3314 1.84512 12.4768 2.95131C13.2261 3.69065 13.5218 4.77481 13.2517 5.79221C12.9815 6.80961 12.1869 7.60423 11.1695 7.87441C10.1521 8.14458 9.06789 7.84889 8.32855 7.09957Z" fill="#2C4067" fill-opacity="0.75" />
</g>
</g>
</svg>
