<svg width="16" height="16" viewBox="0 0 16 16" fill="none" xmlns="http://www.w3.org/2000/svg">
<g id="link">
<path id="link_2" fill-rule="evenodd" clip-rule="evenodd" d="M6.0776 9.11001C5.83099 8.78008 5.89834 8.31255 6.22803 8.06576C6.55771 7.81897 7.02489 7.88637 7.2715 8.2163C7.71775 8.81333 8.40112 9.18696 9.14423 9.24022C9.88735 9.29348 10.6169 9.02112 11.1438 8.49373L13.1226 6.51357C14.0957 5.50529 14.0818 3.90258 13.0913 2.91138C12.1009 1.92018 10.4993 1.90625 9.49951 2.87252L8.35977 4.00649C8.06779 4.29698 7.59579 4.2956 7.30551 4.00341C7.01524 3.71122 7.01661 3.23886 7.30859 2.94837L8.45603 1.80686C10.0486 0.267583 12.58 0.289596 14.1456 1.85634C15.7112 3.42307 15.7332 5.95639 14.1859 7.55936L12.1981 9.54868C11.3656 10.3821 10.2123 10.8127 9.03773 10.7285C7.86312 10.6443 6.78297 10.0537 6.0776 9.11001ZM9.92207 6.89003C10.1687 7.21996 10.1013 7.68749 9.77165 7.93428C9.44196 8.18107 8.97478 8.11367 8.72817 7.78374C8.28192 7.18671 7.59856 6.81308 6.85544 6.75982C6.11233 6.70656 5.38273 6.97892 4.85592 7.50631L2.87708 9.48647C1.90397 10.4948 1.91789 12.0975 2.90835 13.0887C3.89882 14.0799 5.50033 14.0938 6.49862 13.1291L7.63174 11.9951C7.92287 11.7037 8.39488 11.7037 8.686 11.9951C8.97713 12.2864 8.97713 12.7588 8.686 13.0501L7.54364 14.1932C5.9511 15.7325 3.41967 15.7104 1.8541 14.1437C0.288522 12.577 0.266524 10.0437 1.81374 8.44068L3.80157 6.45136C4.63412 5.6179 5.78735 5.18739 6.96195 5.27157C8.13655 5.35576 9.21671 5.94634 9.92207 6.89003Z" fill="#2C4067" fill-opacity="0.75"/>
</g>
</svg>
