<svg width="16" height="16" viewBox="0 0 16 16" fill="none" xmlns="http://www.w3.org/2000/svg">
<g id="lock">
<path id="lock_2" fill-rule="evenodd" clip-rule="evenodd" d="M10.5516 4.70414V6.59927H5.44872V4.70414C5.44872 3.29344 6.59104 2.14983 8.00016 2.14983C9.40928 2.14983 10.5516 3.29344 10.5516 4.70414ZM14.6668 9.31837C14.6668 7.84422 13.495 6.64406 12.0331 6.6005V4.70414C12.0331 2.47432 10.2275 0.666687 8.00016 0.666687C5.77284 0.666687 3.96724 2.47432 3.96724 4.70414V6.6005C2.50528 6.64406 1.3335 7.84422 1.3335 9.31837V12.6143C1.3335 14.116 2.54951 15.3334 4.04955 15.3334H11.9508C13.4508 15.3334 14.6668 14.116 14.6668 12.6143V9.31837ZM4.04955 8.08242H4.70798H11.2923H11.9508C12.6326 8.08242 13.1853 8.63577 13.1853 9.31837V12.6143C13.1853 13.2969 12.6326 13.8502 11.9508 13.8502H4.04955C3.36771 13.8502 2.81498 13.2969 2.81498 12.6143V9.31837C2.81498 8.63577 3.36771 8.08242 4.04955 8.08242ZM8.00016 11.9551C8.54563 11.9551 8.98782 11.5124 8.98782 10.9663C8.98782 10.4202 8.54563 9.97755 8.00016 9.97755C7.4547 9.97755 7.01251 10.4202 7.01251 10.9663C7.01251 11.5124 7.4547 11.9551 8.00016 11.9551Z" fill="#2C4067" fill-opacity="0.75"/>
</g>
</svg>
