<svg width="106" height="105" viewBox="0 0 106 105" fill="none" xmlns="http://www.w3.org/2000/svg">
<path fill-rule="evenodd" clip-rule="evenodd" d="M7.69 0.0815461C8.1171 0.0197346 8.54855 -0.00700789 8.98001 0.00155948H34.25C35.9812 0.00517174 37.6747 0.508035 39.1274 1.44986C40.58 2.39169 41.7302 3.73251 42.44 5.31156H91.76C93.5235 5.30999 95.2696 5.65965 96.8965 6.34015C98.5233 7.02066 99.9984 8.01836 101.236 9.27506C102.473 10.5318 103.447 12.0223 104.102 13.6596C104.757 15.297 105.079 17.0483 105.05 18.8116V91.7415C105.042 95.2602 103.638 98.6318 101.146 101.116C98.6545 103.6 95.2786 104.994 91.76 104.992H13.5C11.7394 105.023 9.99014 104.704 8.35422 104.053C6.7183 103.401 5.2285 102.431 3.9718 101.197C2.7151 99.9637 1.71666 98.4924 1.03473 96.8689C0.352801 95.2455 0.0010395 93.5024 0 91.7415V8.10153C0 3.62153 4.19 0.631546 7.69 0.0815461Z" fill="#009D8D"/>
<path fill-rule="evenodd" clip-rule="evenodd" d="M52.775 95.5116C50.7174 95.2872 12.8076 79.5247 12.8076 79.5247V16.9362C12.8076 16.9362 48.9714 33.7337 50.1062 34.245C50.3264 34.3071 50.5518 34.3488 50.7796 34.3697V82.8044L20.0779 71.0574V74.1999L52.6003 87.7801V87.8798H52.6876H52.775V87.7801L85.4597 73.539V69.536L54.8075 82.6423V34.245C55.8301 33.5093 93.4655 16.9362 93.4655 16.9362V79.5247C93.4655 79.5247 54.3712 95.6862 52.775 95.5116Z" fill="white"/>
<path fill-rule="evenodd" clip-rule="evenodd" d="M74.5233 54.9208C74.139 55.3711 73.6608 55.7317 73.1222 55.9773C72.5836 56.2229 71.9977 56.3475 71.4057 56.3424C70.8138 56.3475 70.2278 56.2229 69.6892 55.9773C69.1506 55.7317 68.6724 55.3711 68.2881 54.9208C67.4513 53.9731 67.0056 52.7429 67.0411 51.479C66.9986 50.2178 67.4454 48.989 68.2881 48.0497C68.6724 47.5994 69.1506 47.2388 69.6892 46.9932C70.2278 46.7476 70.8138 46.623 71.4057 46.6281C71.9977 46.623 72.5836 46.7476 73.1222 46.9932C73.6608 47.2388 74.139 47.5994 74.5233 48.0497C75.3572 48.9943 75.8027 50.2194 75.7703 51.479C75.8059 52.7429 75.3602 53.9731 74.5233 54.9208ZM74.5233 38.7843C74.1362 39.2303 73.657 39.5872 73.1189 39.8304C72.5807 40.0737 71.9963 40.1975 71.4057 40.1934C70.8151 40.1975 70.2307 40.0737 69.6926 39.8304C69.1544 39.5872 68.6753 39.2303 68.2881 38.7843C67.4513 37.8365 67.0056 36.6063 67.0411 35.3424C67.0056 34.0786 67.4513 32.8484 68.2881 31.9006C68.6724 31.4504 69.1506 31.0898 69.6892 30.8442C70.2278 30.5986 70.8138 30.4739 71.4057 30.479C71.9977 30.4739 72.5836 30.5986 73.1222 30.8442C73.6608 31.0898 74.139 31.4504 74.5233 31.9006C75.3602 32.8484 75.8059 34.0786 75.7703 35.3424C75.8059 36.6063 75.3602 37.8365 74.5233 38.7843ZM68.2881 64.1863C68.6724 63.736 69.1506 63.3754 69.6892 63.1298C70.2278 62.8842 70.8138 62.7596 71.4057 62.7647C71.9977 62.7596 72.5836 62.8842 73.1222 63.1298C73.6608 63.3754 74.139 63.736 74.5233 64.1863C75.3602 65.134 75.8059 66.3642 75.7703 67.6281C75.8059 68.8919 75.3602 70.1221 74.5233 71.0699C74.1362 71.5159 73.657 71.8728 73.1189 72.1161C72.5807 72.3593 71.9963 72.4831 71.4057 72.479C70.8151 72.4831 70.2307 72.3593 69.6926 72.1161C69.1544 71.8728 68.6753 71.5159 68.2881 71.0699C67.4513 70.1221 67.0056 68.8919 67.0411 67.6281C67.0056 66.3642 67.4513 65.134 68.2881 64.1863Z" fill="#049D8D"/>
</svg>
